<svg width="104.28" height="77" viewBox="0 0 104.28 77" xmlns="http://www.w3.org/2000/svg"><g id="svgGroup" stroke-linecap="round" fill-rule="nonzero" font-size="9pt" stroke="#1A1A1A" stroke-width="0.5" fill="#1A1A1A" style="stroke:#1A1A1A;stroke-width:0.5;fill:#1A1A1A"><path d="M 32.56 77 L 24.53 77 L 0 0 L 12.65 0 L 27.5 48.18 Q 28.16 49.94 28.71 52.305 Q 29.26 54.67 29.7 57.09 Q 30.14 59.51 30.525 61.6 Q 30.91 63.69 31.24 65.01 L 28.05 64.9 A 1649.536 1649.536 0 0 1 29.521 59.73 A 681.523 681.523 0 0 1 30.635 55.88 A 229.341 229.341 0 0 1 31.976 51.434 A 83.794 83.794 0 0 1 32.12 50.985 Q 32.67 49.28 33.11 48.07 L 46.97 13.31 L 57.64 13.31 L 71.06 48.07 Q 72.16 50.71 72.985 53.295 Q 73.81 55.88 74.47 58.465 Q 75.13 61.05 75.9 63.91 L 73.04 64.68 Q 73.59 61.71 73.865 60.005 Q 74.14 58.3 74.36 57.2 Q 74.58 56.1 74.8 55.055 Q 75.02 54.01 75.515 52.36 Q 76.01 50.71 76.89 47.85 L 91.52 0 L 104.28 0 L 79.75 77 L 71.5 77 L 51.15 28.82 L 52.14 29.26 L 32.56 77 Z"/></g></svg>